<svg xmlns="http://www.w3.org/2000/svg" viewBox="0 0 24 24"> <path fill="currentColor" d="M 12 0.53710938 A 1.4890614 1.4890614 0 0 0 10.513672 2.0058594 L 10.511719 2.0058594 L 10.511719 2.0273438 L 10.511719 4.1699219 A 7.9885165 7.9885165 0 0 0 5.9492188 6.7871094 L 4.1074219 5.7246094 A 1.4890614 1.4890614 0 0 0 4.0898438 5.7128906 A 1.4890614 1.4890614 0 0 0 2.0742188 6.2695312 A 1.4890614 1.4890614 0 0 0 2.6015625 8.2910156 L 2.5996094 8.2929688 L 2.6191406 8.3027344 L 4.4746094 9.375 A 7.9885165 7.9885165 0 0 0 4.0117188 12 A 7.9885165 7.9885165 0 0 0 4.4746094 14.625 L 2.6191406 15.697266 A 1.4890614 1.4890614 0 0 0 2.5996094 15.707031 A 1.4890614 1.4890614 0 0 0 2.0742188 17.730469 A 1.4890614 1.4890614 0 0 0 4.0878906 18.285156 L 4.0898438 18.287109 L 4.1074219 18.275391 L 5.9492188 17.212891 A 7.9885165 7.9885165 0 0 0 10.511719 19.830078 L 10.511719 21.972656 A 1.4890614 1.4890614 0 0 0 10.511719 21.994141 A 1.4890614 1.4890614 0 0 0 12 23.462891 A 1.4890614 1.4890614 0 0 0 13.486328 21.994141 L 13.488281 21.994141 L 13.488281 21.972656 L 13.488281 19.847656 A 7.9885165 7.9885165 0 0 0 18.050781 17.212891 L 19.892578 18.275391 A 1.4890614 1.4890614 0 0 0 19.910156 18.287109 A 1.4890614 1.4890614 0 0 0 21.925781 17.730469 A 1.4890614 1.4890614 0 0 0 21.398438 15.708984 L 21.400391 15.707031 L 21.380859 15.697266 L 19.541016 14.634766 A 7.9885165 7.9885165 0 0 0 19.988281 12 A 7.9885165 7.9885165 0 0 0 19.541016 9.3652344 L 21.380859 8.3027344 A 1.4890614 1.4890614 0 0 0 21.400391 8.2929688 A 1.4890614 1.4890614 0 0 0 21.925781 6.2695312 A 1.4890614 1.4890614 0 0 0 19.912109 5.7148438 L 19.910156 5.7128906 L 19.892578 5.7246094 L 18.050781 6.7871094 A 7.9885165 7.9885165 0 0 0 13.488281 4.1523438 L 13.488281 2.0273438 A 1.4890614 1.4890614 0 0 0 13.488281 2.0253906 A 1.4890614 1.4890614 0 0 0 13.488281 2.0234375 A 1.4890614 1.4890614 0 0 0 13.488281 2.0214844 A 1.4890614 1.4890614 0 0 0 13.488281 2.0195312 A 1.4890614 1.4890614 0 0 0 13.488281 2.0175781 A 1.4890614 1.4890614 0 0 0 13.488281 2.015625 A 1.4890614 1.4890614 0 0 0 13.488281 2.0136719 A 1.4890614 1.4890614 0 0 0 13.488281 2.0117188 A 1.4890614 1.4890614 0 0 0 13.488281 2.0097656 A 1.4890614 1.4890614 0 0 0 13.488281 2.0078125 A 1.4890614 1.4890614 0 0 0 13.488281 2.0058594 A 1.4890614 1.4890614 0 0 0 12 0.53710938 z "/></svg>
